<svg xmlns="http://www.w3.org/2000/svg" xmlns:xlink="http://www.w3.org/1999/xlink" width="500" zoomAndPan="magnify" viewBox="0 0 375 374.999991" height="500" preserveAspectRatio="xMidYMid meet" version="1.0"><defs><clipPath id="dc485f59e9"><path d="M 4.808594 4.808594 L 370.058594 4.808594 L 370.058594 370.058594 L 4.808594 370.058594 Z M 4.808594 4.808594 " clip-rule="nonzero"/></clipPath></defs><g clip-path="url(#dc485f59e9)"><path fill="#ffffff" d="M 229.019531 87.851562 C 229.019531 86.21875 228.941406 84.589844 228.78125 82.96875 C 228.621094 81.34375 228.382812 79.730469 228.0625 78.128906 C 227.746094 76.53125 227.347656 74.949219 226.875 73.386719 C 226.402344 71.828125 225.851562 70.292969 225.226562 68.785156 C 224.601562 67.277344 223.90625 65.804688 223.136719 64.363281 C 222.367188 62.925781 221.53125 61.527344 220.625 60.171875 C 219.714844 58.8125 218.746094 57.503906 217.710938 56.242188 C 216.675781 54.980469 215.582031 53.773438 214.425781 52.621094 C 213.273438 51.464844 212.066406 50.371094 210.804688 49.335938 C 209.542969 48.300781 208.234375 47.332031 206.875 46.421875 C 205.519531 45.515625 204.121094 44.679688 202.683594 43.910156 C 201.242188 43.140625 199.769531 42.445312 198.261719 41.820312 C 196.753906 41.195312 195.21875 40.644531 193.660156 40.171875 C 192.097656 39.699219 190.515625 39.300781 188.914062 38.984375 C 187.316406 38.664062 185.703125 38.425781 184.078125 38.265625 C 182.457031 38.105469 180.828125 38.027344 179.195312 38.027344 C 177.5625 38.027344 175.9375 38.105469 174.3125 38.265625 C 172.6875 38.425781 171.074219 38.664062 169.476562 38.984375 C 167.875 39.300781 166.292969 39.699219 164.734375 40.171875 C 163.171875 40.644531 161.636719 41.195312 160.128906 41.820312 C 158.621094 42.445312 157.148438 43.140625 155.707031 43.910156 C 154.269531 44.679688 152.871094 45.515625 151.515625 46.421875 C 150.15625 47.332031 148.847656 48.300781 147.585938 49.335938 C 146.324219 50.371094 145.117188 51.464844 143.964844 52.621094 C 142.8125 53.773438 141.714844 54.980469 140.679688 56.242188 C 139.644531 57.503906 138.675781 58.8125 137.769531 60.171875 C 136.863281 61.527344 136.023438 62.925781 135.253906 64.363281 C 134.484375 65.804688 133.789062 67.277344 133.164062 68.785156 C 132.539062 70.292969 131.992188 71.828125 131.515625 73.386719 C 131.042969 74.949219 130.648438 76.53125 130.328125 78.128906 C 130.011719 79.730469 129.769531 81.34375 129.609375 82.96875 C 129.453125 84.589844 129.371094 86.21875 129.371094 87.851562 C 129.371094 89.484375 129.453125 91.109375 129.609375 92.734375 C 129.769531 94.359375 130.011719 95.972656 130.328125 97.570312 C 130.648438 99.171875 131.042969 100.753906 131.515625 102.3125 C 131.992188 103.875 132.539062 105.410156 133.164062 106.917969 C 133.789062 108.425781 134.484375 109.898438 135.253906 111.339844 C 136.023438 112.777344 136.863281 114.175781 137.769531 115.53125 C 138.675781 116.890625 139.644531 118.199219 140.679688 119.460938 C 141.714844 120.71875 142.8125 121.929688 143.964844 123.082031 C 145.117188 124.234375 146.324219 125.332031 147.585938 126.367188 C 148.847656 127.402344 150.15625 128.371094 151.515625 129.277344 C 152.871094 130.183594 154.269531 131.023438 155.707031 131.792969 C 157.148438 132.5625 158.621094 133.257812 160.128906 133.882812 C 161.636719 134.507812 163.171875 135.054688 164.734375 135.53125 C 166.292969 136.003906 167.875 136.398438 169.476562 136.71875 C 171.074219 137.035156 172.6875 137.277344 174.3125 137.433594 C 175.9375 137.59375 177.5625 137.675781 179.195312 137.675781 C 180.828125 137.675781 182.457031 137.59375 184.078125 137.433594 C 185.703125 137.277344 187.316406 137.035156 188.914062 136.71875 C 190.515625 136.398438 192.097656 136.003906 193.660156 135.53125 C 195.21875 135.054688 196.753906 134.507812 198.261719 133.882812 C 199.769531 133.257812 201.242188 132.5625 202.683594 131.792969 C 204.121094 131.023438 205.519531 130.183594 206.875 129.277344 C 208.234375 128.371094 209.542969 127.402344 210.804688 126.367188 C 212.066406 125.332031 213.273438 124.234375 214.425781 123.082031 C 215.582031 121.929688 216.675781 120.71875 217.710938 119.460938 C 218.746094 118.199219 219.714844 116.890625 220.625 115.53125 C 221.53125 114.175781 222.367188 112.777344 223.136719 111.339844 C 223.90625 109.898438 224.601562 108.425781 225.226562 106.917969 C 225.851562 105.410156 226.402344 103.875 226.875 102.3125 C 227.347656 100.753906 227.746094 99.171875 228.0625 97.570312 C 228.382812 95.972656 228.621094 94.359375 228.78125 92.734375 C 228.941406 91.109375 229.019531 89.484375 229.019531 87.851562 Z M 162.585938 121.066406 C 161 121.074219 159.535156 120.65625 158.1875 119.820312 C 157.589844 119.449219 157.046875 119.003906 156.5625 118.492188 C 156.074219 117.980469 155.660156 117.414062 155.320312 116.796875 C 154.980469 116.179688 154.71875 115.53125 154.542969 114.847656 C 154.371094 114.164062 154.28125 113.46875 154.285156 112.761719 L 154.285156 62.9375 C 154.285156 62.585938 154.308594 62.234375 154.355469 61.886719 C 154.398438 61.535156 154.46875 61.191406 154.558594 60.851562 C 154.648438 60.507812 154.757812 60.175781 154.890625 59.847656 C 155.023438 59.523438 155.175781 59.207031 155.347656 58.898438 C 155.519531 58.589844 155.710938 58.296875 155.921875 58.011719 C 156.132812 57.730469 156.359375 57.460938 156.601562 57.207031 C 156.847656 56.953125 157.105469 56.714844 157.382812 56.496094 C 157.65625 56.273438 157.941406 56.070312 158.242188 55.886719 C 158.542969 55.703125 158.855469 55.539062 159.175781 55.394531 C 159.496094 55.25 159.828125 55.125 160.164062 55.019531 C 160.5 54.917969 160.84375 54.835938 161.191406 54.777344 C 161.539062 54.71875 161.886719 54.683594 162.238281 54.667969 C 162.59375 54.652344 162.945312 54.660156 163.296875 54.691406 C 163.644531 54.71875 163.992188 54.773438 164.339844 54.847656 C 164.683594 54.921875 165.023438 55.015625 165.355469 55.132812 C 165.6875 55.25 166.007812 55.390625 166.324219 55.546875 L 216.148438 80.460938 C 216.828125 80.808594 217.449219 81.242188 218.007812 81.761719 C 218.570312 82.28125 219.050781 82.867188 219.449219 83.519531 C 219.847656 84.171875 220.148438 84.867188 220.355469 85.601562 C 220.5625 86.335938 220.667969 87.085938 220.667969 87.851562 C 220.667969 88.613281 220.5625 89.363281 220.355469 90.101562 C 220.148438 90.835938 219.847656 91.53125 219.449219 92.183594 C 219.050781 92.835938 218.570312 93.417969 218.007812 93.941406 C 217.449219 94.460938 216.828125 94.894531 216.148438 95.242188 L 166.324219 120.152344 C 165.152344 120.753906 163.90625 121.058594 162.585938 121.066406 Z M 170.890625 76.390625 L 193.8125 87.851562 L 170.890625 99.3125 Z M 278.84375 179.195312 C 279.390625 179.195312 279.929688 179.140625 280.464844 179.035156 C 281 178.929688 281.519531 178.773438 282.023438 178.5625 C 282.527344 178.355469 283.003906 178.097656 283.457031 177.796875 C 283.910156 177.492188 284.332031 177.148438 284.714844 176.761719 C 285.101562 176.378906 285.445312 175.957031 285.75 175.503906 C 286.050781 175.050781 286.308594 174.574219 286.515625 174.070312 C 286.726562 173.566406 286.882812 173.046875 286.988281 172.511719 C 287.09375 171.976562 287.148438 171.4375 287.148438 170.890625 L 287.148438 46.332031 C 287.148438 44.972656 287.082031 43.613281 286.949219 42.261719 C 286.816406 40.90625 286.617188 39.5625 286.351562 38.230469 C 286.085938 36.898438 285.753906 35.578125 285.359375 34.277344 C 284.964844 32.976562 284.507812 31.699219 283.988281 30.441406 C 283.46875 29.183594 282.886719 27.957031 282.246094 26.757812 C 281.605469 25.558594 280.90625 24.394531 280.152344 23.261719 C 279.394531 22.132812 278.585938 21.042969 277.722656 19.992188 C 276.859375 18.9375 275.949219 17.933594 274.988281 16.972656 C 274.027344 16.011719 273.019531 15.097656 271.96875 14.234375 C 270.917969 13.371094 269.828125 12.5625 268.695312 11.808594 C 267.566406 11.050781 266.398438 10.355469 265.199219 9.714844 C 264 9.070312 262.773438 8.492188 261.515625 7.972656 C 260.261719 7.449219 258.980469 6.992188 257.679688 6.597656 C 256.378906 6.203125 255.0625 5.875 253.726562 5.609375 C 252.394531 5.34375 251.050781 5.144531 249.699219 5.011719 C 248.34375 4.878906 246.988281 4.808594 245.628906 4.808594 L 46.332031 4.808594 C 44.972656 4.808594 43.613281 4.878906 42.261719 5.011719 C 40.90625 5.144531 39.5625 5.34375 38.230469 5.609375 C 36.898438 5.875 35.578125 6.203125 34.277344 6.597656 C 32.976562 6.992188 31.699219 7.449219 30.441406 7.972656 C 29.183594 8.492188 27.957031 9.070312 26.757812 9.714844 C 25.558594 10.355469 24.394531 11.050781 23.261719 11.808594 C 22.132812 12.5625 21.042969 13.371094 19.992188 14.234375 C 18.9375 15.097656 17.933594 16.011719 16.972656 16.972656 C 16.011719 17.933594 15.097656 18.9375 14.234375 19.992188 C 13.371094 21.042969 12.5625 22.132812 11.808594 23.261719 C 11.050781 24.394531 10.355469 25.558594 9.714844 26.757812 C 9.070312 27.957031 8.492188 29.183594 7.972656 30.441406 C 7.449219 31.699219 6.992188 32.976562 6.597656 34.277344 C 6.203125 35.578125 5.875 36.898438 5.609375 38.230469 C 5.34375 39.5625 5.144531 40.90625 5.011719 42.261719 C 4.878906 43.613281 4.808594 44.972656 4.808594 46.332031 L 4.808594 162.585938 C 4.808594 163.132812 4.863281 163.671875 4.96875 164.207031 C 5.078125 164.742188 5.234375 165.261719 5.441406 165.765625 C 5.652344 166.269531 5.90625 166.746094 6.210938 167.199219 C 6.511719 167.65625 6.855469 168.074219 7.242188 168.460938 C 7.628906 168.84375 8.046875 169.1875 8.5 169.492188 C 8.953125 169.796875 9.433594 170.050781 9.9375 170.257812 C 10.441406 170.46875 10.960938 170.625 11.496094 170.730469 C 12.027344 170.839844 12.570312 170.890625 13.113281 170.890625 L 71.242188 170.890625 L 71.242188 320.363281 C 71.242188 320.910156 71.296875 321.449219 71.402344 321.984375 C 71.507812 322.519531 71.667969 323.039062 71.875 323.542969 C 72.082031 324.046875 72.339844 324.523438 72.640625 324.976562 C 72.945312 325.433594 73.289062 325.851562 73.675781 326.238281 C 74.0625 326.621094 74.480469 326.964844 74.933594 327.269531 C 75.386719 327.574219 75.867188 327.828125 76.367188 328.035156 C 76.871094 328.246094 77.390625 328.402344 77.925781 328.507812 C 78.460938 328.617188 79 328.667969 79.546875 328.667969 L 154.285156 328.667969 C 154.828125 328.667969 155.367188 328.617188 155.902344 328.507812 C 156.4375 328.402344 156.957031 328.246094 157.460938 328.035156 C 157.964844 327.828125 158.445312 327.574219 158.898438 327.269531 C 159.351562 326.964844 159.769531 326.621094 160.15625 326.238281 C 160.539062 325.851562 160.886719 325.433594 161.1875 324.976562 C 161.492188 324.523438 161.746094 324.046875 161.957031 323.542969 C 162.164062 323.039062 162.320312 322.519531 162.429688 321.984375 C 162.535156 321.449219 162.585938 320.910156 162.585938 320.363281 L 162.585938 195.804688 C 162.585938 195.261719 162.613281 194.71875 162.667969 194.175781 C 162.722656 193.632812 162.800781 193.097656 162.90625 192.5625 C 163.011719 192.03125 163.144531 191.503906 163.304688 190.984375 C 163.460938 190.460938 163.644531 189.949219 163.851562 189.449219 C 164.058594 188.945312 164.292969 188.453125 164.546875 187.976562 C 164.804688 187.496094 165.085938 187.027344 165.386719 186.578125 C 165.6875 186.125 166.011719 185.6875 166.359375 185.269531 C 166.703125 184.847656 167.066406 184.445312 167.453125 184.058594 C 167.835938 183.675781 168.238281 183.3125 168.660156 182.964844 C 169.082031 182.621094 169.515625 182.296875 169.96875 181.996094 C 170.421875 181.691406 170.886719 181.414062 171.367188 181.15625 C 171.847656 180.902344 172.335938 180.667969 172.839844 180.460938 C 173.34375 180.25 173.855469 180.070312 174.375 179.910156 C 174.894531 179.753906 175.421875 179.621094 175.957031 179.515625 C 176.488281 179.410156 177.027344 179.328125 177.566406 179.277344 C 178.109375 179.222656 178.652344 179.195312 179.195312 179.195312 Z M 21.417969 154.285156 L 21.417969 46.332031 C 21.417969 45.515625 21.457031 44.699219 21.539062 43.890625 C 21.617188 43.078125 21.738281 42.269531 21.898438 41.46875 C 22.054688 40.671875 22.253906 39.878906 22.492188 39.097656 C 22.726562 38.316406 23.003906 37.550781 23.316406 36.796875 C 23.628906 36.042969 23.976562 35.308594 24.359375 34.585938 C 24.746094 33.867188 25.164062 33.167969 25.617188 32.488281 C 26.070312 31.8125 26.554688 31.15625 27.074219 30.527344 C 27.589844 29.894531 28.136719 29.292969 28.714844 28.714844 C 29.292969 28.136719 29.894531 27.589844 30.527344 27.074219 C 31.15625 26.554688 31.8125 26.070312 32.488281 25.617188 C 33.167969 25.164062 33.867188 24.746094 34.585938 24.359375 C 35.308594 23.976562 36.042969 23.628906 36.796875 23.316406 C 37.550781 23.003906 38.316406 22.726562 39.097656 22.492188 C 39.878906 22.253906 40.671875 22.054688 41.46875 21.898438 C 42.269531 21.738281 43.078125 21.617188 43.890625 21.539062 C 44.699219 21.457031 45.515625 21.417969 46.332031 21.417969 C 47.148438 21.417969 47.960938 21.457031 48.773438 21.539062 C 49.585938 21.617188 50.390625 21.738281 51.191406 21.898438 C 51.992188 22.054688 52.78125 22.253906 53.5625 22.492188 C 54.34375 22.726562 55.109375 23.003906 55.863281 23.316406 C 56.617188 23.628906 57.355469 23.976562 58.074219 24.359375 C 58.792969 24.746094 59.492188 25.164062 60.171875 25.617188 C 60.847656 26.070312 61.503906 26.554688 62.136719 27.074219 C 62.765625 27.589844 63.371094 28.136719 63.945312 28.714844 C 64.523438 29.292969 65.070312 29.894531 65.589844 30.527344 C 66.105469 31.15625 66.589844 31.8125 67.042969 32.488281 C 67.496094 33.167969 67.917969 33.867188 68.300781 34.585938 C 68.6875 35.308594 69.035156 36.042969 69.347656 36.796875 C 69.660156 37.550781 69.933594 38.316406 70.171875 39.097656 C 70.40625 39.878906 70.605469 40.671875 70.765625 41.46875 C 70.921875 42.269531 71.042969 43.078125 71.121094 43.890625 C 71.203125 44.699219 71.242188 45.515625 71.242188 46.332031 L 71.242188 154.285156 Z M 112.761719 87.851562 C 112.761719 86.765625 112.789062 85.675781 112.84375 84.589844 C 112.898438 83.503906 112.976562 82.421875 113.082031 81.339844 C 113.191406 80.257812 113.324219 79.179688 113.480469 78.101562 C 113.640625 77.027344 113.828125 75.957031 114.039062 74.890625 C 114.25 73.824219 114.488281 72.765625 114.753906 71.710938 C 115.019531 70.65625 115.308594 69.605469 115.625 68.566406 C 115.9375 67.527344 116.28125 66.496094 116.648438 65.46875 C 117.011719 64.445312 117.402344 63.433594 117.820312 62.429688 C 118.234375 61.425781 118.675781 60.429688 119.140625 59.449219 C 119.605469 58.464844 120.09375 57.492188 120.609375 56.535156 C 121.121094 55.574219 121.65625 54.628906 122.214844 53.699219 C 122.773438 52.765625 123.355469 51.847656 123.960938 50.941406 C 124.5625 50.039062 125.1875 49.152344 125.835938 48.277344 C 126.484375 47.402344 127.152344 46.546875 127.84375 45.707031 C 128.53125 44.867188 129.242188 44.042969 129.972656 43.238281 C 130.703125 42.433594 131.453125 41.644531 132.222656 40.875 C 132.988281 40.105469 133.777344 39.359375 134.582031 38.628906 C 135.386719 37.898438 136.210938 37.1875 137.050781 36.496094 C 137.890625 35.808594 138.75 35.140625 139.621094 34.492188 C 140.496094 33.84375 141.382812 33.21875 142.289062 32.613281 C 143.191406 32.011719 144.109375 31.429688 145.042969 30.871094 C 145.976562 30.3125 146.921875 29.773438 147.878906 29.261719 C 148.839844 28.75 149.808594 28.261719 150.792969 27.796875 C 151.773438 27.332031 152.769531 26.890625 153.773438 26.476562 C 154.777344 26.058594 155.792969 25.667969 156.816406 25.300781 C 157.839844 24.9375 158.871094 24.59375 159.910156 24.277344 C 160.953125 23.964844 162 23.671875 163.054688 23.410156 C 164.109375 23.144531 165.167969 22.90625 166.234375 22.695312 C 167.300781 22.484375 168.371094 22.296875 169.449219 22.136719 C 170.523438 21.976562 171.601562 21.84375 172.683594 21.738281 C 173.765625 21.632812 174.851562 21.550781 175.9375 21.5 C 177.023438 21.445312 178.109375 21.417969 179.195312 21.417969 C 180.28125 21.417969 181.371094 21.445312 182.457031 21.5 C 183.542969 21.550781 184.625 21.632812 185.707031 21.738281 C 186.789062 21.84375 187.867188 21.976562 188.945312 22.136719 C 190.019531 22.296875 191.089844 22.484375 192.15625 22.695312 C 193.222656 22.90625 194.28125 23.144531 195.335938 23.410156 C 196.390625 23.671875 197.441406 23.964844 198.480469 24.277344 C 199.519531 24.59375 200.550781 24.9375 201.574219 25.300781 C 202.601562 25.667969 203.613281 26.058594 204.617188 26.476562 C 205.621094 26.890625 206.617188 27.332031 207.597656 27.796875 C 208.582031 28.261719 209.554688 28.75 210.511719 29.261719 C 211.46875 29.773438 212.417969 30.3125 213.347656 30.871094 C 214.28125 31.429688 215.199219 32.011719 216.105469 32.613281 C 217.007812 33.21875 217.894531 33.84375 218.769531 34.492188 C 219.644531 35.140625 220.5 35.808594 221.339844 36.496094 C 222.179688 37.1875 223.003906 37.898438 223.808594 38.628906 C 224.613281 39.359375 225.402344 40.105469 226.171875 40.875 C 226.9375 41.644531 227.6875 42.433594 228.417969 43.238281 C 229.148438 44.042969 229.859375 44.867188 230.546875 45.707031 C 231.238281 46.546875 231.90625 47.402344 232.554688 48.277344 C 233.203125 49.152344 233.828125 50.039062 234.433594 50.941406 C 235.035156 51.847656 235.617188 52.765625 236.175781 53.699219 C 236.734375 54.628906 237.269531 55.574219 237.785156 56.535156 C 238.296875 57.492188 238.785156 58.464844 239.25 59.449219 C 239.714844 60.429688 240.15625 61.425781 240.570312 62.429688 C 240.988281 63.433594 241.378906 64.445312 241.746094 65.46875 C 242.109375 66.496094 242.453125 67.527344 242.769531 68.566406 C 243.082031 69.605469 243.375 70.65625 243.636719 71.710938 C 243.902344 72.765625 244.140625 73.824219 244.351562 74.890625 C 244.5625 75.957031 244.75 77.027344 244.910156 78.101562 C 245.070312 79.179688 245.203125 80.257812 245.308594 81.339844 C 245.414062 82.421875 245.496094 83.503906 245.546875 84.589844 C 245.601562 85.675781 245.628906 86.765625 245.628906 87.851562 C 245.628906 88.9375 245.601562 90.023438 245.546875 91.109375 C 245.496094 92.195312 245.414062 93.28125 245.308594 94.363281 C 245.203125 95.445312 245.070312 96.523438 244.910156 97.597656 C 244.75 98.675781 244.5625 99.746094 244.351562 100.8125 C 244.140625 101.878906 243.902344 102.9375 243.636719 103.992188 C 243.375 105.046875 243.082031 106.09375 242.769531 107.136719 C 242.453125 108.175781 242.109375 109.207031 241.746094 110.230469 C 241.378906 111.253906 240.988281 112.269531 240.570312 113.273438 C 240.15625 114.277344 239.714844 115.273438 239.25 116.253906 C 238.785156 117.238281 238.296875 118.207031 237.785156 119.167969 C 237.269531 120.125 236.734375 121.070312 236.175781 122.003906 C 235.617188 122.9375 235.035156 123.855469 234.433594 124.757812 C 233.828125 125.664062 233.203125 126.550781 232.554688 127.425781 C 231.90625 128.296875 231.238281 129.15625 230.546875 129.996094 C 229.859375 130.835938 229.148438 131.660156 228.417969 132.464844 C 227.6875 133.269531 226.9375 134.058594 226.171875 134.824219 C 225.402344 135.59375 224.613281 136.34375 223.808594 137.074219 C 223.003906 137.804688 222.179688 138.515625 221.339844 139.203125 C 220.5 139.894531 219.644531 140.5625 218.769531 141.210938 C 217.894531 141.859375 217.007812 142.484375 216.105469 143.085938 C 215.199219 143.691406 214.28125 144.273438 213.347656 144.832031 C 212.417969 145.390625 211.46875 145.925781 210.511719 146.4375 C 209.554688 146.953125 208.582031 147.441406 207.597656 147.90625 C 206.617188 148.371094 205.621094 148.8125 204.617188 149.226562 C 203.613281 149.644531 202.601562 150.035156 201.574219 150.398438 C 200.550781 150.765625 199.519531 151.105469 198.480469 151.421875 C 197.441406 151.738281 196.390625 152.027344 195.335938 152.292969 C 194.28125 152.558594 193.222656 152.792969 192.15625 153.007812 C 191.089844 153.21875 190.019531 153.40625 188.945312 153.566406 C 187.867188 153.722656 186.789062 153.855469 185.707031 153.964844 C 184.625 154.070312 183.542969 154.148438 182.457031 154.203125 C 181.371094 154.257812 180.28125 154.285156 179.195312 154.285156 C 178.109375 154.285156 177.023438 154.257812 175.9375 154.203125 C 174.851562 154.148438 173.765625 154.070312 172.683594 153.964844 C 171.601562 153.855469 170.523438 153.722656 169.449219 153.566406 C 168.371094 153.40625 167.300781 153.21875 166.234375 153.007812 C 165.167969 152.792969 164.109375 152.558594 163.054688 152.292969 C 162 152.027344 160.953125 151.738281 159.910156 151.421875 C 158.871094 151.105469 157.839844 150.765625 156.816406 150.398438 C 155.792969 150.035156 154.777344 149.644531 153.773438 149.226562 C 152.769531 148.8125 151.773438 148.371094 150.792969 147.90625 C 149.808594 147.441406 148.839844 146.953125 147.878906 146.4375 C 146.921875 145.925781 145.976562 145.390625 145.042969 144.832031 C 144.109375 144.273438 143.191406 143.691406 142.289062 143.085938 C 141.382812 142.484375 140.496094 141.859375 139.621094 141.210938 C 138.75 140.5625 137.890625 139.894531 137.050781 139.203125 C 136.210938 138.515625 135.386719 137.804688 134.582031 137.074219 C 133.777344 136.34375 132.988281 135.59375 132.222656 134.824219 C 131.453125 134.058594 130.703125 133.269531 129.972656 132.464844 C 129.242188 131.660156 128.53125 130.835938 127.84375 129.996094 C 127.152344 129.15625 126.484375 128.296875 125.835938 127.425781 C 125.1875 126.550781 124.5625 125.664062 123.960938 124.757812 C 123.355469 123.855469 122.773438 122.9375 122.214844 122.003906 C 121.65625 121.070312 121.121094 120.125 120.609375 119.167969 C 120.09375 118.207031 119.605469 117.238281 119.140625 116.253906 C 118.675781 115.273438 118.234375 114.277344 117.820312 113.273438 C 117.402344 112.269531 117.011719 111.253906 116.648438 110.230469 C 116.28125 109.207031 115.9375 108.175781 115.625 107.136719 C 115.308594 106.09375 115.019531 105.046875 114.753906 103.992188 C 114.488281 102.9375 114.25 101.878906 114.039062 100.8125 C 113.828125 99.746094 113.640625 98.675781 113.480469 97.597656 C 113.324219 96.523438 113.191406 95.445312 113.082031 94.363281 C 112.976562 93.28125 112.898438 92.195312 112.84375 91.109375 C 112.789062 90.023438 112.761719 88.9375 112.761719 87.851562 Z M 370.1875 229.019531 L 370.1875 237.324219 L 170.890625 237.324219 L 170.890625 229.019531 C 170.890625 228.203125 170.933594 227.390625 171.011719 226.578125 C 171.089844 225.765625 171.210938 224.960938 171.371094 224.160156 C 171.53125 223.359375 171.726562 222.570312 171.964844 221.789062 C 172.203125 221.007812 172.476562 220.242188 172.789062 219.488281 C 173.101562 218.734375 173.449219 217.996094 173.832031 217.277344 C 174.21875 216.558594 174.636719 215.859375 175.089844 215.179688 C 175.542969 214.5 176.027344 213.847656 176.546875 213.214844 C 177.0625 212.585938 177.613281 211.980469 178.1875 211.40625 C 178.765625 210.828125 179.367188 210.28125 180 209.761719 C 180.628906 209.246094 181.285156 208.757812 181.964844 208.304688 C 182.640625 207.851562 183.339844 207.433594 184.058594 207.050781 C 184.78125 206.664062 185.515625 206.316406 186.269531 206.003906 C 187.023438 205.691406 187.792969 205.417969 188.570312 205.179688 C 189.351562 204.945312 190.144531 204.746094 190.945312 204.585938 C 191.742188 204.425781 192.550781 204.308594 193.363281 204.226562 C 194.175781 204.148438 194.988281 204.109375 195.804688 204.109375 L 204.109375 204.109375 L 204.109375 187.5 L 220.714844 187.5 L 220.714844 204.109375 L 320.363281 204.109375 L 320.363281 187.5 L 336.972656 187.5 L 336.972656 204.109375 L 345.277344 204.109375 C 346.09375 204.109375 346.90625 204.148438 347.71875 204.226562 C 348.53125 204.308594 349.335938 204.425781 350.136719 204.585938 C 350.9375 204.746094 351.726562 204.945312 352.507812 205.179688 C 353.289062 205.417969 354.058594 205.691406 354.808594 206.003906 C 355.5625 206.316406 356.300781 206.664062 357.019531 207.050781 C 357.738281 207.433594 358.4375 207.851562 359.117188 208.304688 C 359.796875 208.757812 360.449219 209.246094 361.082031 209.761719 C 361.710938 210.28125 362.316406 210.828125 362.894531 211.40625 C 363.46875 211.980469 364.015625 212.585938 364.535156 213.214844 C 365.050781 213.847656 365.539062 214.5 365.992188 215.179688 C 366.445312 215.859375 366.863281 216.558594 367.246094 217.277344 C 367.632812 217.996094 367.980469 218.734375 368.292969 219.488281 C 368.605469 220.242188 368.878906 221.007812 369.117188 221.789062 C 369.351562 222.570312 369.550781 223.359375 369.710938 224.160156 C 369.871094 224.960938 369.988281 225.765625 370.070312 226.578125 C 370.148438 227.390625 370.1875 228.203125 370.1875 229.019531 Z M 170.890625 345.277344 C 170.890625 346.09375 170.929688 346.90625 171.011719 347.71875 C 171.089844 348.53125 171.210938 349.335938 171.371094 350.136719 C 171.53125 350.9375 171.726562 351.726562 171.964844 352.507812 C 172.203125 353.289062 172.476562 354.058594 172.789062 354.808594 C 173.101562 355.5625 173.449219 356.300781 173.832031 357.019531 C 174.21875 357.738281 174.636719 358.4375 175.089844 359.117188 C 175.542969 359.796875 176.027344 360.449219 176.546875 361.082031 C 177.0625 361.710938 177.613281 362.316406 178.1875 362.894531 C 178.765625 363.46875 179.367188 364.015625 180 364.535156 C 180.628906 365.050781 181.285156 365.539062 181.964844 365.992188 C 182.640625 366.445312 183.339844 366.863281 184.058594 367.246094 C 184.78125 367.632812 185.515625 367.980469 186.269531 368.292969 C 187.023438 368.605469 187.792969 368.878906 188.570312 369.117188 C 189.351562 369.351562 190.144531 369.550781 190.945312 369.710938 C 191.742188 369.871094 192.550781 369.988281 193.363281 370.070312 C 194.175781 370.148438 194.988281 370.1875 195.804688 370.1875 L 345.277344 370.1875 C 346.09375 370.1875 346.90625 370.148438 347.71875 370.070312 C 348.53125 369.988281 349.335938 369.871094 350.136719 369.710938 C 350.9375 369.550781 351.726562 369.351562 352.507812 369.117188 C 353.289062 368.878906 354.058594 368.605469 354.808594 368.292969 C 355.5625 367.980469 356.300781 367.632812 357.019531 367.246094 C 357.738281 366.863281 358.4375 366.445312 359.117188 365.992188 C 359.796875 365.539062 360.449219 365.050781 361.082031 364.535156 C 361.710938 364.015625 362.316406 363.46875 362.894531 362.894531 C 363.46875 362.316406 364.015625 361.710938 364.535156 361.082031 C 365.050781 360.449219 365.539062 359.796875 365.992188 359.117188 C 366.445312 358.4375 366.863281 357.738281 367.246094 357.019531 C 367.632812 356.300781 367.980469 355.5625 368.292969 354.808594 C 368.605469 354.058594 368.878906 353.289062 369.117188 352.507812 C 369.351562 351.726562 369.550781 350.9375 369.710938 350.136719 C 369.871094 349.335938 369.988281 348.53125 370.070312 347.71875 C 370.148438 346.90625 370.1875 346.09375 370.1875 345.277344 L 370.1875 253.933594 L 170.890625 253.933594 Z M 303.757812 287.148438 L 336.972656 287.148438 L 336.972656 303.757812 L 303.757812 303.757812 Z M 303.757812 320.363281 L 336.972656 320.363281 L 336.972656 336.972656 L 303.757812 336.972656 Z M 253.933594 287.148438 L 287.148438 287.148438 L 287.148438 303.757812 L 253.933594 303.757812 Z M 253.933594 320.363281 L 287.148438 320.363281 L 287.148438 336.972656 L 253.933594 336.972656 Z M 204.109375 287.148438 L 237.324219 287.148438 L 237.324219 303.757812 L 204.109375 303.757812 Z M 204.109375 320.363281 L 237.324219 320.363281 L 237.324219 336.972656 L 204.109375 336.972656 Z M 204.109375 320.363281 " fill-opacity="1" fill-rule="nonzero"/></g></svg>