<svg xmlns="http://www.w3.org/2000/svg" xmlns:xlink="http://www.w3.org/1999/xlink" width="500" zoomAndPan="magnify" viewBox="0 0 375 374.999991" height="500" preserveAspectRatio="xMidYMid meet" version="1.0"><defs><clipPath id="64d1bf3af7"><path d="M 1.746094 1.746094 L 372.996094 1.746094 L 372.996094 372.996094 L 1.746094 372.996094 Z M 1.746094 1.746094 " clip-rule="nonzero"/></clipPath></defs><path fill="#ffffff" d="M 192.363281 224.710938 L 187.003906 213.992188 L 176.308594 219.351562 L 181.644531 230.070312 L 192.363281 224.710938 " fill-opacity="1" fill-rule="nonzero"/><path fill="#ffffff" d="M 170.921875 235.429688 L 165.585938 224.710938 L 154.84375 230.070312 L 160.226562 240.789062 L 170.921875 235.429688 " fill-opacity="1" fill-rule="nonzero"/><path fill="#ffffff" d="M 213.804688 213.992188 L 208.441406 203.269531 L 197.722656 208.628906 L 203.082031 219.351562 L 213.804688 213.992188 " fill-opacity="1" fill-rule="nonzero"/><path fill="#ffffff" d="M 92.257812 208.769531 L 102.976562 214.152344 L 108.96875 202.171875 L 98.25 196.785156 L 92.257812 208.769531 " fill-opacity="1" fill-rule="nonzero"/><path fill="#ffffff" d="M 144.917969 130.269531 L 134.199219 124.882812 L 103.09375 187.121094 L 113.8125 192.480469 L 144.917969 130.269531 " fill-opacity="1" fill-rule="nonzero"/><path fill="#ffffff" d="M 63.421875 231.195312 L 45.445312 249.167969 L 53.917969 257.640625 L 71.894531 239.667969 L 63.421875 231.195312 " fill-opacity="1" fill-rule="nonzero"/><path fill="#ffffff" d="M 81.398438 249.167969 L 63.421875 267.144531 L 71.894531 275.617188 L 89.871094 257.640625 L 81.398438 249.167969 " fill-opacity="1" fill-rule="nonzero"/><path fill="#ffffff" d="M 99.371094 267.144531 L 81.398438 285.121094 L 89.871094 293.59375 L 107.84375 275.617188 L 99.371094 267.144531 " fill-opacity="1" fill-rule="nonzero"/><g clip-path="url(#64d1bf3af7)"><path fill="#ffffff" d="M 319.316406 97.617188 L 205.46875 97.617188 L 205.46875 55.671875 C 205.46875 32.550781 224.289062 13.730469 247.414062 13.730469 L 319.316406 13.730469 C 342.441406 13.730469 361.257812 32.550781 361.257812 55.671875 C 361.257812 78.796875 342.441406 97.617188 319.316406 97.617188 Z M 277.371094 206.5 C 277.371094 212.539062 272.457031 217.453125 266.417969 217.453125 C 263.492188 217.453125 260.730469 216.308594 258.671875 214.246094 L 130.78125 86.359375 C 128.722656 84.300781 127.578125 81.539062 127.578125 78.613281 C 127.578125 72.574219 132.492188 67.65625 138.53125 67.65625 C 141.457031 67.65625 144.21875 68.804688 146.277344 70.863281 L 274.167969 198.753906 C 276.226562 200.8125 277.371094 203.574219 277.371094 206.5 Z M 158.917969 287.25 C 161.890625 290.199219 163.527344 294.15625 163.527344 298.34375 C 163.527344 302.535156 161.890625 306.488281 158.917969 309.4375 L 154.539062 313.839844 L 136.050781 295.347656 L 148.03125 283.363281 L 143.679688 279.011719 L 148.359375 276.671875 Z M 169.519531 350.304688 C 169.519531 356.34375 164.605469 361.257812 158.566406 361.257812 C 155.640625 361.257812 152.878906 360.113281 150.816406 358.050781 L 112.082031 319.316406 L 127.578125 303.820312 L 166.3125 342.558594 C 168.371094 344.617188 169.519531 347.378906 169.519531 350.304688 Z M 28.195312 247.414062 L 61.664062 213.945312 L 131.085938 283.363281 L 97.617188 316.835938 Z M 65.222656 331.253906 C 37.417969 330.011719 15.019531 307.613281 13.777344 279.808594 L 28.710938 264.875 L 80.15625 316.320312 Z M 129.214844 101.734375 L 243.292969 215.816406 L 134.761719 270.070312 L 74.960938 210.269531 Z M 319.316406 1.746094 L 247.414062 1.746094 C 217.6875 1.746094 193.488281 25.949219 193.488281 55.671875 L 193.488281 101.128906 L 154.75 62.390625 C 150.421875 58.0625 144.664062 55.671875 138.53125 55.671875 C 125.890625 55.671875 115.59375 65.972656 115.59375 78.613281 C 115.59375 83.738281 117.347656 88.535156 120.414062 92.539062 L 66.019531 201.351562 L 61.664062 196.996094 L 11.25 247.414062 L 20.238281 256.402344 L 1.746094 274.890625 L 1.746094 277.371094 C 1.746094 313.722656 31.308594 343.285156 67.65625 343.285156 L 70.136719 343.285156 L 88.628906 324.792969 L 97.617188 333.78125 L 103.609375 327.789062 L 142.34375 366.527344 C 146.675781 370.855469 152.433594 373.242188 158.566406 373.242188 C 171.203125 373.242188 181.503906 362.945312 181.503906 350.304688 C 181.503906 344.171875 179.117188 338.414062 174.785156 334.085938 L 163.011719 322.3125 L 167.414062 317.933594 C 172.632812 312.691406 175.511719 305.742188 175.511719 298.34375 C 175.511719 290.949219 172.632812 283.996094 167.414062 278.753906 L 159.664062 271.03125 L 252.492188 224.617188 C 256.496094 227.683594 261.292969 229.4375 266.417969 229.4375 C 279.058594 229.4375 289.355469 219.140625 289.355469 206.5 C 289.355469 200.367188 286.96875 194.609375 282.640625 190.28125 L 201.960938 109.601562 L 319.316406 109.601562 C 349.042969 109.601562 373.242188 85.398438 373.242188 55.671875 C 373.242188 25.949219 349.042969 1.746094 319.316406 1.746094 " fill-opacity="1" fill-rule="nonzero"/></g><path fill="#ffffff" d="M 331.300781 61.664062 C 328 61.664062 325.308594 58.972656 325.308594 55.671875 C 325.308594 52.375 328 49.683594 331.300781 49.683594 C 334.601562 49.683594 337.292969 52.375 337.292969 55.671875 C 337.292969 58.972656 334.601562 61.664062 331.300781 61.664062 Z M 331.300781 37.699219 C 321.375 37.699219 313.324219 45.75 313.324219 55.671875 C 313.324219 65.597656 321.375 73.648438 331.300781 73.648438 C 341.222656 73.648438 349.277344 65.597656 349.277344 55.671875 C 349.277344 45.75 341.222656 37.699219 331.300781 37.699219 " fill-opacity="1" fill-rule="nonzero"/><path fill="#ffffff" d="M 283.363281 61.664062 C 280.066406 61.664062 277.371094 58.972656 277.371094 55.671875 C 277.371094 52.375 280.066406 49.683594 283.363281 49.683594 C 286.664062 49.683594 289.355469 52.375 289.355469 55.671875 C 289.355469 58.972656 286.664062 61.664062 283.363281 61.664062 Z M 283.363281 37.699219 C 273.441406 37.699219 265.390625 45.75 265.390625 55.671875 C 265.390625 65.597656 273.441406 73.648438 283.363281 73.648438 C 293.289062 73.648438 301.339844 65.597656 301.339844 55.671875 C 301.339844 45.75 293.289062 37.699219 283.363281 37.699219 " fill-opacity="1" fill-rule="nonzero"/><path fill="#ffffff" d="M 235.429688 61.664062 C 232.128906 61.664062 229.4375 58.972656 229.4375 55.671875 C 229.4375 52.375 232.128906 49.683594 235.429688 49.683594 C 238.730469 49.683594 241.421875 52.375 241.421875 55.671875 C 241.421875 58.972656 238.730469 61.664062 235.429688 61.664062 Z M 235.429688 37.699219 C 225.507812 37.699219 217.453125 45.75 217.453125 55.671875 C 217.453125 65.597656 225.507812 73.648438 235.429688 73.648438 C 245.355469 73.648438 253.40625 65.597656 253.40625 55.671875 C 253.40625 45.75 245.355469 37.699219 235.429688 37.699219 " fill-opacity="1" fill-rule="nonzero"/></svg>