<svg xmlns="http://www.w3.org/2000/svg" xmlns:xlink="http://www.w3.org/1999/xlink" width="1200" zoomAndPan="magnify" viewBox="0 0 900 470.999988" height="628" preserveAspectRatio="xMidYMid meet" version="1.0"><defs><filter x="0%" y="0%" width="100%" height="100%" id="d4cdef9f33"><feColorMatrix values="0 0 0 0 1 0 0 0 0 1 0 0 0 0 1 0 0 0 1 0" color-interpolation-filters="sRGB"/></filter><mask id="4a5193d006"><g filter="url(#d4cdef9f33)"><rect x="-90" width="1080" fill="#000000" y="-47.099999" height="565.199986" fill-opacity="0.29"/></g></mask><clipPath id="6f86ce70a4"><path d="M 28 3.203125 L 65.585938 3.203125 L 65.585938 41 L 28 41 Z M 28 3.203125 " clip-rule="nonzero"/></clipPath><clipPath id="b943d72364"><path d="M 2.585938 28 L 41 28 L 41 66.203125 L 2.585938 66.203125 Z M 2.585938 28 " clip-rule="nonzero"/></clipPath><clipPath id="17f216ea0b"><rect x="0" width="69" y="0" height="69"/></clipPath><mask id="d195b48f0f"><g filter="url(#d4cdef9f33)"><rect x="-90" width="1080" fill="#000000" y="-47.099999" height="565.199986" fill-opacity="0.37"/></g></mask><clipPath id="a4550a7042"><path d="M 0.0390625 0.941406 L 84 0.941406 L 84 15 L 0.0390625 15 Z M 0.0390625 0.941406 " clip-rule="nonzero"/></clipPath><clipPath id="5d9811f552"><rect x="0" width="85" y="0" height="16"/></clipPath><mask id="9040ad6e19"><g filter="url(#d4cdef9f33)"><rect x="-90" width="1080" fill="#000000" y="-47.099999" height="565.199986" fill-opacity="0.37"/></g></mask><clipPath id="8b872b9f97"><path d="M 0.320312 0.910156 L 13 0.910156 L 13 12.910156 L 0.320312 12.910156 Z M 0.320312 0.910156 " clip-rule="nonzero"/></clipPath><clipPath id="722baf430e"><path d="M 29 0.910156 L 42 0.910156 L 42 12.910156 L 29 12.910156 Z M 29 0.910156 " clip-rule="nonzero"/></clipPath><clipPath id="a7744e053e"><path d="M 56 0.910156 L 69 0.910156 L 69 12.910156 L 56 12.910156 Z M 56 0.910156 " clip-rule="nonzero"/></clipPath><clipPath id="1f45238133"><path d="M 85 0.910156 L 98 0.910156 L 98 12.910156 L 85 12.910156 Z M 85 0.910156 " clip-rule="nonzero"/></clipPath><clipPath id="7b6d500a5c"><rect x="0" width="98" y="0" height="14"/></clipPath><mask id="2432ba52db"><g filter="url(#d4cdef9f33)"><rect x="-90" width="1080" fill="#000000" y="-47.099999" height="565.199986" fill-opacity="0.37"/></g></mask><clipPath id="325a1d51f8"><path d="M 0.441406 0.292969 L 72.246094 0.292969 L 72.246094 10.792969 L 0.441406 10.792969 Z M 0.441406 0.292969 " clip-rule="nonzero"/></clipPath><clipPath id="84ee4b4b3c"><rect x="0" width="73" y="0" height="12"/></clipPath><mask id="c56eecc063"><g filter="url(#d4cdef9f33)"><rect x="-90" width="1080" fill="#000000" y="-47.099999" height="565.199986" fill-opacity="0.37"/></g></mask><clipPath id="42b5008543"><path d="M 23 2.453125 L 54.890625 2.453125 L 54.890625 35 L 23 35 Z M 23 2.453125 " clip-rule="nonzero"/></clipPath><clipPath id="32bde08203"><path d="M 2.390625 23 L 34 23 L 34 54.953125 L 2.390625 54.953125 Z M 2.390625 23 " clip-rule="nonzero"/></clipPath><clipPath id="12fef61469"><rect x="0" width="58" y="0" height="58"/></clipPath><mask id="96eb6aa0fc"><g filter="url(#d4cdef9f33)"><rect x="-90" width="1080" fill="#000000" y="-47.099999" height="565.199986" fill-opacity="0.3"/></g></mask><clipPath id="d7fdd66f4a"><path d="M 0.242188 1.328125 L 14 1.328125 L 14 16.328125 L 0.242188 16.328125 Z M 0.242188 1.328125 " clip-rule="nonzero"/></clipPath><clipPath id="6d1c6b67cd"><path d="M 21 1.328125 L 34 1.328125 L 34 16.328125 L 21 16.328125 Z M 21 1.328125 " clip-rule="nonzero"/></clipPath><clipPath id="1002f20fd3"><path d="M 41 1.328125 L 55 1.328125 L 55 16.328125 L 41 16.328125 Z M 41 1.328125 " clip-rule="nonzero"/></clipPath><clipPath id="fb63cbe755"><path d="M 61 1.328125 L 75 1.328125 L 75 16.328125 L 61 16.328125 Z M 61 1.328125 " clip-rule="nonzero"/></clipPath><clipPath id="2ec1d68f65"><path d="M 82 1.328125 L 95 1.328125 L 95 16.328125 L 82 16.328125 Z M 82 1.328125 " clip-rule="nonzero"/></clipPath><clipPath id="e4842623d4"><rect x="0" width="96" y="0" height="17"/></clipPath></defs><g mask="url(#4a5193d006)"><g transform="matrix(1, 0, 0, 1, 338, 308)"><g clip-path="url(#17f216ea0b)"><path fill="#ffffff" d="M 14.8125 12.480469 C 14.617188 12.285156 14.390625 12.132812 14.136719 12.027344 C 13.878906 11.921875 13.613281 11.871094 13.335938 11.871094 C 13.058594 11.871094 12.792969 11.921875 12.539062 12.027344 C 12.28125 12.136719 12.058594 12.285156 11.863281 12.480469 C 11.667969 12.675781 11.515625 12.902344 11.410156 13.15625 C 11.304688 13.414062 11.25 13.679688 11.25 13.957031 C 11.25 14.234375 11.304688 14.5 11.410156 14.753906 C 11.515625 15.011719 11.664062 15.234375 11.859375 15.429688 L 53.601562 57.171875 C 53.792969 57.378906 54.019531 57.535156 54.273438 57.644531 C 54.53125 57.757812 54.800781 57.8125 55.078125 57.8125 C 55.359375 57.8125 55.625 57.757812 55.882812 57.644531 C 56.140625 57.535156 56.363281 57.378906 56.554688 57.171875 C 56.757812 56.984375 56.914062 56.757812 57.027344 56.503906 C 57.136719 56.246094 57.191406 55.976562 57.191406 55.699219 C 57.191406 55.417969 57.136719 55.152344 57.027344 54.894531 C 56.914062 54.636719 56.757812 54.414062 56.554688 54.222656 Z M 14.8125 12.480469 " fill-opacity="1" fill-rule="nonzero"/><path fill="#ffffff" d="M 22.148438 7.125 C 21.949219 6.925781 21.722656 6.773438 21.460938 6.667969 C 21.203125 6.558594 20.933594 6.507812 20.652344 6.507812 C 20.371094 6.507812 20.101562 6.558594 19.84375 6.667969 C 19.582031 6.773438 19.355469 6.929688 19.15625 7.125 C 18.957031 7.324219 18.804688 7.554688 18.699219 7.8125 C 18.589844 8.070312 18.535156 8.339844 18.535156 8.621094 C 18.535156 8.902344 18.589844 9.171875 18.695312 9.433594 C 18.804688 9.691406 18.957031 9.921875 19.15625 10.117188 L 58.914062 49.878906 C 59.335938 50.300781 59.839844 50.511719 60.433594 50.511719 C 61.015625 50.507812 61.507812 50.296875 61.910156 49.878906 C 62.109375 49.679688 62.261719 49.453125 62.371094 49.191406 C 62.480469 48.933594 62.53125 48.664062 62.53125 48.382812 C 62.53125 48.101562 62.480469 47.832031 62.371094 47.570312 C 62.261719 47.3125 62.109375 47.082031 61.910156 46.886719 Z M 22.148438 7.125 " fill-opacity="1" fill-rule="nonzero"/><g clip-path="url(#6f86ce70a4)"><path fill="#ffffff" d="M 64.945312 37.273438 L 31.761719 4.089844 C 31.5625 3.890625 31.335938 3.738281 31.074219 3.628906 C 30.816406 3.523438 30.546875 3.46875 30.265625 3.46875 C 29.984375 3.46875 29.714844 3.523438 29.457031 3.628906 C 29.195312 3.738281 28.96875 3.890625 28.769531 4.089844 C 28.570312 4.289062 28.417969 4.515625 28.308594 4.777344 C 28.203125 5.035156 28.148438 5.304688 28.148438 5.585938 C 28.148438 5.867188 28.203125 6.136719 28.308594 6.394531 C 28.417969 6.65625 28.570312 6.882812 28.769531 7.082031 L 61.953125 40.265625 C 62.371094 40.6875 62.875 40.898438 63.46875 40.898438 C 64.050781 40.894531 64.542969 40.683594 64.945312 40.265625 C 65.144531 40.066406 65.296875 39.839844 65.40625 39.578125 C 65.515625 39.320312 65.570312 39.050781 65.570312 38.769531 C 65.570312 38.488281 65.515625 38.21875 65.40625 37.957031 C 65.296875 37.699219 65.144531 37.46875 64.945312 37.273438 Z M 64.945312 37.273438 " fill-opacity="1" fill-rule="nonzero"/></g><path fill="#ffffff" d="M 60.390625 26.058594 C 60.800781 26.457031 61.292969 26.65625 61.867188 26.648438 C 62.457031 26.664062 62.960938 26.464844 63.386719 26.058594 C 63.578125 25.855469 63.730469 25.625 63.835938 25.367188 C 63.9375 25.109375 63.992188 24.839844 63.992188 24.558594 C 63.992188 24.28125 63.9375 24.011719 63.835938 23.753906 C 63.730469 23.492188 63.578125 23.265625 63.386719 23.0625 L 45.972656 5.648438 C 45.773438 5.449219 45.542969 5.296875 45.285156 5.191406 C 45.023438 5.082031 44.753906 5.027344 44.472656 5.027344 C 44.191406 5.027344 43.921875 5.082031 43.664062 5.1875 C 43.402344 5.296875 43.175781 5.449219 42.976562 5.648438 C 42.777344 5.847656 42.625 6.074219 42.515625 6.335938 C 42.410156 6.59375 42.355469 6.863281 42.355469 7.144531 C 42.355469 7.425781 42.410156 7.695312 42.519531 7.957031 C 42.625 8.214844 42.777344 8.445312 42.976562 8.644531 Z M 60.390625 26.058594 " fill-opacity="1" fill-rule="nonzero"/><path fill="#ffffff" d="M 9.5 19.773438 C 9.300781 19.574219 9.070312 19.421875 8.8125 19.316406 C 8.554688 19.207031 8.285156 19.15625 8.003906 19.15625 C 7.722656 19.15625 7.453125 19.210938 7.191406 19.316406 C 6.933594 19.425781 6.707031 19.578125 6.507812 19.777344 C 6.308594 19.972656 6.15625 20.203125 6.046875 20.460938 C 5.941406 20.722656 5.886719 20.992188 5.886719 21.273438 C 5.886719 21.550781 5.941406 21.820312 6.046875 22.082031 C 6.15625 22.339844 6.308594 22.570312 6.503906 22.769531 L 46.265625 62.527344 C 46.683594 62.949219 47.191406 63.160156 47.785156 63.160156 C 48.363281 63.15625 48.855469 62.945312 49.261719 62.527344 C 49.460938 62.332031 49.613281 62.101562 49.722656 61.84375 C 49.828125 61.582031 49.882812 61.3125 49.882812 61.03125 C 49.882812 60.75 49.828125 60.480469 49.722656 60.222656 C 49.613281 59.960938 49.460938 59.734375 49.261719 59.535156 Z M 9.5 19.773438 " fill-opacity="1" fill-rule="nonzero"/><g clip-path="url(#b943d72364)"><path fill="#ffffff" d="M 6.464844 29.386719 C 6.265625 29.1875 6.035156 29.035156 5.777344 28.929688 C 5.515625 28.820312 5.246094 28.769531 4.96875 28.769531 C 4.6875 28.769531 4.417969 28.820312 4.15625 28.929688 C 3.898438 29.035156 3.667969 29.1875 3.46875 29.386719 C 3.273438 29.585938 3.117188 29.816406 3.011719 30.074219 C 2.902344 30.332031 2.851562 30.605469 2.851562 30.882812 C 2.851562 31.164062 2.902344 31.433594 3.011719 31.695312 C 3.117188 31.953125 3.273438 32.183594 3.46875 32.382812 L 36.652344 65.5625 C 37.070312 65.984375 37.578125 66.195312 38.171875 66.195312 C 38.75 66.195312 39.242188 65.984375 39.648438 65.5625 C 39.847656 65.367188 40 65.136719 40.109375 64.878906 C 40.214844 64.617188 40.269531 64.347656 40.269531 64.066406 C 40.269531 63.785156 40.214844 63.515625 40.109375 63.257812 C 40 62.996094 39.847656 62.769531 39.648438 62.570312 Z M 6.464844 29.386719 " fill-opacity="1" fill-rule="nonzero"/></g><path fill="#ffffff" d="M 8.023438 43.597656 C 7.824219 43.398438 7.597656 43.246094 7.335938 43.136719 C 7.078125 43.03125 6.808594 42.976562 6.527344 42.976562 C 6.246094 42.976562 5.976562 43.03125 5.714844 43.136719 C 5.457031 43.246094 5.226562 43.398438 5.027344 43.597656 C 4.832031 43.792969 4.675781 44.023438 4.570312 44.28125 C 4.460938 44.542969 4.410156 44.8125 4.410156 45.09375 C 4.410156 45.375 4.460938 45.644531 4.570312 45.902344 C 4.679688 46.164062 4.832031 46.390625 5.03125 46.589844 L 22.445312 64.003906 C 22.855469 64.40625 23.34375 64.601562 23.917969 64.59375 C 24.507812 64.609375 25.015625 64.414062 25.4375 64.003906 C 25.632812 63.804688 25.78125 63.574219 25.886719 63.316406 C 25.992188 63.054688 26.042969 62.785156 26.042969 62.507812 C 26.042969 62.226562 25.992188 61.957031 25.886719 61.699219 C 25.78125 61.441406 25.632812 61.210938 25.4375 61.011719 Z M 8.023438 43.597656 " fill-opacity="1" fill-rule="nonzero"/></g></g></g><g mask="url(#d195b48f0f)"><g transform="matrix(1, 0, 0, 1, 125, 62)"><g clip-path="url(#5d9811f552)"><g clip-path="url(#a4550a7042)"><path fill="#ffffff" d="M 7.152344 14.945312 C 3.289062 14.945312 0.148438 11.804688 0.148438 7.945312 C 0.148438 4.082031 3.289062 0.941406 7.152344 0.941406 C 11.011719 0.941406 14.152344 4.082031 14.152344 7.945312 C 14.152344 11.804688 11.011719 14.945312 7.152344 14.945312 Z M 7.152344 3.535156 C 4.71875 3.535156 2.742188 5.511719 2.742188 7.945312 C 2.742188 10.375 4.71875 12.351562 7.152344 12.351562 C 9.582031 12.351562 11.558594 10.375 11.558594 7.945312 C 11.558594 5.511719 9.582031 3.535156 7.152344 3.535156 Z M 30.335938 14.945312 C 26.476562 14.945312 23.335938 11.804688 23.335938 7.945312 C 23.335938 4.082031 26.476562 0.941406 30.335938 0.941406 C 34.199219 0.941406 37.339844 4.082031 37.339844 7.945312 C 37.339844 11.804688 34.199219 14.945312 30.335938 14.945312 Z M 30.335938 3.535156 C 27.90625 3.535156 25.929688 5.511719 25.929688 7.945312 C 25.929688 10.375 27.90625 12.351562 30.335938 12.351562 C 32.765625 12.351562 34.746094 10.375 34.746094 7.945312 C 34.746094 5.511719 32.765625 3.535156 30.335938 3.535156 Z M 53.523438 14.945312 C 49.660156 14.945312 46.519531 11.804688 46.519531 7.945312 C 46.519531 4.082031 49.660156 0.941406 53.523438 0.941406 C 57.382812 0.941406 60.523438 4.082031 60.523438 7.945312 C 60.523438 11.804688 57.382812 14.945312 53.523438 14.945312 Z M 53.523438 3.535156 C 51.089844 3.535156 49.113281 5.511719 49.113281 7.945312 C 49.113281 10.375 51.089844 12.351562 53.523438 12.351562 C 55.953125 12.351562 57.929688 10.375 57.929688 7.945312 C 57.929688 5.511719 55.953125 3.535156 53.523438 3.535156 Z M 76.707031 14.945312 C 72.847656 14.945312 69.703125 11.804688 69.703125 7.945312 C 69.703125 4.082031 72.847656 0.941406 76.707031 0.941406 C 80.570312 0.941406 83.710938 4.082031 83.710938 7.945312 C 83.710938 11.804688 80.570312 14.945312 76.707031 14.945312 Z M 76.707031 3.535156 C 74.277344 3.535156 72.300781 5.511719 72.300781 7.945312 C 72.300781 10.375 74.277344 12.351562 76.707031 12.351562 C 79.136719 12.351562 81.117188 10.375 81.117188 7.945312 C 81.117188 5.511719 79.136719 3.535156 76.707031 3.535156 Z M 76.707031 3.535156 " fill-opacity="1" fill-rule="nonzero"/></g></g></g></g><g mask="url(#9040ad6e19)"><g transform="matrix(1, 0, 0, 1, 718, 78)"><g clip-path="url(#7b6d500a5c)"><g clip-path="url(#8b872b9f97)"><path fill="#ffffff" d="M 8.128906 6.976562 L 12.519531 2.585938 C 12.882812 2.222656 12.882812 1.632812 12.519531 1.269531 C 12.15625 0.90625 11.566406 0.90625 11.203125 1.269531 L 6.8125 5.660156 L 2.421875 1.269531 C 2.058594 0.90625 1.472656 0.90625 1.109375 1.269531 C 0.746094 1.632812 0.746094 2.222656 1.109375 2.585938 L 5.5 6.976562 L 1.109375 11.367188 C 0.746094 11.730469 0.746094 12.316406 1.109375 12.679688 C 1.289062 12.863281 1.527344 12.953125 1.765625 12.953125 C 2.003906 12.953125 2.242188 12.863281 2.421875 12.679688 L 6.8125 8.289062 L 11.203125 12.679688 C 11.386719 12.863281 11.625 12.953125 11.863281 12.953125 C 12.097656 12.953125 12.335938 12.863281 12.519531 12.679688 C 12.882812 12.316406 12.882812 11.730469 12.519531 11.367188 Z M 8.128906 6.976562 " fill-opacity="1" fill-rule="nonzero"/></g><g clip-path="url(#722baf430e)"><path fill="#ffffff" d="M 37.136719 6.976562 L 41.527344 2.585938 C 41.890625 2.222656 41.890625 1.632812 41.527344 1.269531 C 41.164062 0.90625 40.574219 0.90625 40.210938 1.269531 L 35.820312 5.660156 L 31.429688 1.269531 C 31.066406 0.90625 30.480469 0.90625 30.117188 1.269531 C 29.753906 1.632812 29.753906 2.222656 30.117188 2.585938 L 34.507812 6.976562 L 30.117188 11.367188 C 29.753906 11.730469 29.753906 12.316406 30.117188 12.679688 C 30.296875 12.863281 30.535156 12.953125 30.773438 12.953125 C 31.011719 12.953125 31.25 12.863281 31.429688 12.679688 L 35.820312 8.289062 L 40.210938 12.679688 C 40.394531 12.863281 40.632812 12.953125 40.871094 12.953125 C 41.109375 12.953125 41.34375 12.863281 41.527344 12.679688 C 41.890625 12.316406 41.890625 11.730469 41.527344 11.367188 Z M 37.136719 6.976562 " fill-opacity="1" fill-rule="nonzero"/></g><g clip-path="url(#a7744e053e)"><path fill="#ffffff" d="M 64.023438 6.976562 L 68.414062 2.585938 C 68.777344 2.222656 68.777344 1.632812 68.414062 1.269531 C 68.050781 0.90625 67.464844 0.90625 67.101562 1.269531 L 62.710938 5.660156 L 58.320312 1.269531 C 57.957031 0.90625 57.367188 0.90625 57.003906 1.269531 C 56.640625 1.632812 56.640625 2.222656 57.003906 2.585938 L 61.394531 6.976562 L 57.003906 11.367188 C 56.640625 11.730469 56.640625 12.316406 57.003906 12.679688 C 57.1875 12.863281 57.425781 12.953125 57.660156 12.953125 C 57.898438 12.953125 58.136719 12.863281 58.320312 12.679688 L 62.710938 8.289062 L 67.101562 12.679688 C 67.28125 12.863281 67.519531 12.953125 67.757812 12.953125 C 67.996094 12.953125 68.234375 12.863281 68.414062 12.679688 C 68.777344 12.316406 68.777344 11.730469 68.414062 11.367188 Z M 64.023438 6.976562 " fill-opacity="1" fill-rule="nonzero"/></g><g clip-path="url(#1f45238133)"><path fill="#ffffff" d="M 93.03125 6.976562 L 97.421875 2.585938 C 97.785156 2.222656 97.785156 1.632812 97.421875 1.269531 C 97.058594 0.90625 96.472656 0.90625 96.109375 1.269531 L 91.71875 5.660156 L 87.328125 1.269531 C 86.964844 0.90625 86.375 0.90625 86.011719 1.269531 C 85.648438 1.632812 85.648438 2.222656 86.011719 2.585938 L 90.402344 6.976562 L 86.011719 11.367188 C 85.648438 11.730469 85.648438 12.316406 86.011719 12.679688 C 86.195312 12.863281 86.433594 12.953125 86.667969 12.953125 C 86.90625 12.953125 87.144531 12.863281 87.328125 12.679688 L 91.71875 8.289062 L 96.109375 12.679688 C 96.289062 12.863281 96.527344 12.953125 96.765625 12.953125 C 97.003906 12.953125 97.242188 12.863281 97.421875 12.679688 C 97.785156 12.316406 97.785156 11.730469 97.421875 11.367188 Z M 93.03125 6.976562 " fill-opacity="1" fill-rule="nonzero"/></g></g></g></g><g mask="url(#2432ba52db)"><g transform="matrix(1, 0, 0, 1, 85, 165)"><g clip-path="url(#84ee4b4b3c)"><g clip-path="url(#325a1d51f8)"><path fill="#ffffff" d="M 72.292969 10.816406 C 68.402344 10.816406 67.050781 8.382812 66.140625 6.753906 C 65.378906 5.359375 65.007812 4.6875 63.335938 4.644531 C 62.226562 4.6875 61.941406 5.097656 61.183594 6.46875 C 60.226562 8.207031 58.769531 10.816406 54.355469 10.816406 C 50.464844 10.816406 49.09375 8.382812 48.203125 6.753906 C 47.417969 5.359375 47.070312 4.6875 45.398438 4.644531 C 44.289062 4.6875 44.003906 5.097656 43.246094 6.46875 C 42.289062 8.207031 40.832031 10.816406 36.417969 10.816406 C 32.527344 10.816406 31.15625 8.382812 30.265625 6.753906 C 29.480469 5.359375 29.113281 4.6875 27.460938 4.644531 C 26.351562 4.6875 26.066406 5.097656 25.308594 6.46875 C 24.351562 8.207031 22.894531 10.816406 18.480469 10.816406 C 14.585938 10.816406 13.21875 8.382812 12.328125 6.753906 C 11.566406 5.359375 11.195312 4.707031 9.523438 4.644531 C 8.414062 4.6875 8.128906 5.097656 7.371094 6.46875 C 6.414062 8.207031 4.957031 10.816406 0.542969 10.816406 L 0.542969 6.46875 C 2.410156 6.46875 2.757812 5.816406 3.585938 4.359375 C 4.414062 2.859375 5.628906 0.664062 8.890625 0.339844 C 9 0.292969 9.152344 0.292969 9.304688 0.292969 L 9.738281 0.292969 C 9.847656 0.292969 9.976562 0.292969 10.085938 0.316406 C 13.871094 0.621094 15.21875 3.011719 16.109375 4.644531 C 16.914062 6.101562 17.175781 6.46875 18.457031 6.46875 C 20.304688 6.46875 20.675781 5.816406 21.480469 4.359375 C 22.304688 2.859375 23.523438 0.664062 26.785156 0.339844 C 26.9375 0.316406 27.066406 0.292969 27.21875 0.292969 L 27.65625 0.292969 C 27.765625 0.292969 27.894531 0.292969 28.003906 0.316406 C 31.808594 0.597656 33.132812 3.011719 34.046875 4.644531 C 34.851562 6.101562 35.113281 6.46875 36.394531 6.46875 C 38.265625 6.46875 38.613281 5.816406 39.417969 4.359375 C 40.242188 2.859375 41.460938 0.664062 44.722656 0.339844 C 44.875 0.316406 45.003906 0.292969 45.15625 0.292969 L 45.570312 0.292969 C 45.679688 0.292969 45.808594 0.292969 45.917969 0.316406 C 49.722656 0.597656 51.050781 3.011719 51.964844 4.644531 C 52.769531 6.101562 53.027344 6.46875 54.3125 6.46875 C 56.160156 6.46875 56.527344 5.816406 57.332031 4.359375 C 58.160156 2.859375 59.398438 0.664062 62.640625 0.339844 C 62.769531 0.316406 62.921875 0.292969 63.074219 0.292969 L 63.507812 0.292969 C 63.617188 0.292969 63.746094 0.292969 63.855469 0.316406 C 67.703125 0.621094 69.03125 3.011719 69.945312 4.644531 C 70.75 6.101562 71.011719 6.46875 72.292969 6.46875 Z M 72.292969 10.816406 " fill-opacity="1" fill-rule="nonzero"/></g></g></g></g><g mask="url(#c56eecc063)"><g transform="matrix(1, 0, 0, 1, 788, 231)"><g clip-path="url(#12fef61469)"><path fill="#ffffff" d="M 12.625 10.21875 C 12.460938 10.054688 12.273438 9.925781 12.058594 9.839844 C 11.84375 9.75 11.621094 9.707031 11.390625 9.707031 C 11.160156 9.707031 10.9375 9.75 10.722656 9.839844 C 10.507812 9.929688 10.320312 10.054688 10.15625 10.21875 C 9.992188 10.382812 9.867188 10.570312 9.777344 10.785156 C 9.6875 11 9.644531 11.222656 9.644531 11.453125 C 9.644531 11.683594 9.6875 11.90625 9.777344 12.121094 C 9.863281 12.335938 9.992188 12.523438 10.15625 12.6875 L 45.097656 47.632812 C 45.257812 47.804688 45.445312 47.933594 45.660156 48.027344 C 45.875 48.121094 46.101562 48.167969 46.335938 48.167969 C 46.570312 48.167969 46.792969 48.121094 47.007812 48.027344 C 47.222656 47.933594 47.410156 47.804688 47.570312 47.632812 C 47.742188 47.472656 47.871094 47.285156 47.964844 47.070312 C 48.058594 46.855469 48.105469 46.632812 48.105469 46.398438 C 48.105469 46.164062 48.058594 45.9375 47.964844 45.722656 C 47.871094 45.507812 47.742188 45.320312 47.570312 45.160156 Z M 12.625 10.21875 " fill-opacity="1" fill-rule="nonzero"/><path fill="#ffffff" d="M 18.765625 5.734375 C 18.601562 5.566406 18.410156 5.441406 18.191406 5.351562 C 17.976562 5.261719 17.75 5.214844 17.515625 5.214844 C 17.28125 5.214844 17.054688 5.261719 16.835938 5.351562 C 16.621094 5.441406 16.429688 5.570312 16.261719 5.734375 C 16.097656 5.902344 15.96875 6.09375 15.878906 6.308594 C 15.789062 6.527344 15.742188 6.753906 15.742188 6.988281 C 15.742188 7.222656 15.789062 7.449219 15.878906 7.664062 C 15.96875 7.882812 16.09375 8.074219 16.261719 8.238281 L 49.546875 41.527344 C 49.898438 41.878906 50.320312 42.054688 50.816406 42.054688 C 51.304688 42.050781 51.714844 41.875 52.054688 41.527344 C 52.21875 41.359375 52.347656 41.167969 52.4375 40.953125 C 52.53125 40.734375 52.574219 40.507812 52.574219 40.273438 C 52.574219 40.039062 52.53125 39.8125 52.4375 39.59375 C 52.347656 39.378906 52.21875 39.1875 52.054688 39.019531 Z M 18.765625 5.734375 " fill-opacity="1" fill-rule="nonzero"/><g clip-path="url(#42b5008543)"><path fill="#ffffff" d="M 54.59375 30.972656 L 26.816406 3.191406 C 26.648438 3.027344 26.457031 2.898438 26.238281 2.808594 C 26.023438 2.71875 25.796875 2.671875 25.5625 2.671875 C 25.328125 2.671875 25.101562 2.71875 24.882812 2.808594 C 24.667969 2.898438 24.476562 3.027344 24.308594 3.191406 C 24.140625 3.359375 24.015625 3.550781 23.925781 3.765625 C 23.835938 3.984375 23.789062 4.210938 23.789062 4.445312 C 23.789062 4.679688 23.835938 4.90625 23.925781 5.125 C 24.015625 5.339844 24.140625 5.53125 24.308594 5.699219 L 52.089844 33.476562 C 52.4375 33.828125 52.863281 34.007812 53.359375 34.007812 C 53.84375 34.003906 54.257812 33.828125 54.59375 33.476562 C 54.761719 33.3125 54.890625 33.121094 54.980469 32.902344 C 55.070312 32.6875 55.117188 32.460938 55.117188 32.226562 C 55.117188 31.988281 55.070312 31.761719 54.980469 31.546875 C 54.890625 31.328125 54.761719 31.136719 54.59375 30.972656 Z M 54.59375 30.972656 " fill-opacity="1" fill-rule="nonzero"/></g><path fill="#ffffff" d="M 50.78125 21.582031 C 51.125 21.917969 51.535156 22.082031 52.015625 22.078125 C 52.511719 22.089844 52.933594 21.925781 53.289062 21.582031 C 53.449219 21.414062 53.578125 21.222656 53.664062 21.003906 C 53.753906 20.789062 53.796875 20.5625 53.796875 20.328125 C 53.796875 20.097656 53.753906 19.871094 53.664062 19.652344 C 53.578125 19.4375 53.449219 19.246094 53.289062 19.078125 L 38.710938 4.5 C 38.542969 4.332031 38.351562 4.203125 38.136719 4.113281 C 37.917969 4.023438 37.691406 3.980469 37.457031 3.980469 C 37.222656 3.980469 36.996094 4.023438 36.777344 4.113281 C 36.5625 4.203125 36.371094 4.332031 36.203125 4.496094 C 36.035156 4.664062 35.910156 4.855469 35.820312 5.074219 C 35.730469 5.289062 35.683594 5.515625 35.683594 5.75 C 35.683594 5.988281 35.730469 6.210938 35.820312 6.429688 C 35.910156 6.648438 36.039062 6.839844 36.203125 7.003906 Z M 50.78125 21.582031 " fill-opacity="1" fill-rule="nonzero"/><path fill="#ffffff" d="M 8.175781 16.324219 C 8.011719 16.15625 7.820312 16.03125 7.601562 15.941406 C 7.386719 15.851562 7.160156 15.804688 6.925781 15.804688 C 6.691406 15.804688 6.464844 15.851562 6.246094 15.941406 C 6.03125 16.03125 5.839844 16.160156 5.671875 16.324219 C 5.507812 16.492188 5.378906 16.683594 5.289062 16.898438 C 5.199219 17.117188 5.152344 17.34375 5.152344 17.578125 C 5.152344 17.8125 5.199219 18.039062 5.289062 18.253906 C 5.378906 18.472656 5.503906 18.664062 5.671875 18.828125 L 38.957031 52.117188 C 39.308594 52.46875 39.730469 52.644531 40.226562 52.644531 C 40.714844 52.640625 41.125 52.464844 41.464844 52.117188 C 41.628906 51.949219 41.757812 51.757812 41.851562 51.542969 C 41.941406 51.324219 41.984375 51.097656 41.984375 50.863281 C 41.984375 50.628906 41.941406 50.402344 41.851562 50.183594 C 41.757812 49.964844 41.628906 49.773438 41.464844 49.609375 Z M 8.175781 16.324219 " fill-opacity="1" fill-rule="nonzero"/><g clip-path="url(#32bde08203)"><path fill="#ffffff" d="M 5.636719 24.371094 C 5.46875 24.207031 5.277344 24.078125 5.0625 23.988281 C 4.84375 23.898438 4.617188 23.851562 4.382812 23.851562 C 4.148438 23.851562 3.921875 23.898438 3.703125 23.988281 C 3.488281 24.078125 3.296875 24.207031 3.128906 24.371094 C 2.964844 24.539062 2.835938 24.730469 2.746094 24.945312 C 2.65625 25.164062 2.609375 25.390625 2.609375 25.625 C 2.609375 25.859375 2.65625 26.085938 2.746094 26.300781 C 2.835938 26.519531 2.964844 26.710938 3.128906 26.878906 L 30.910156 54.65625 C 31.261719 55.007812 31.683594 55.183594 32.179688 55.1875 C 32.667969 55.183594 33.078125 55.007812 33.414062 54.65625 C 33.582031 54.492188 33.710938 54.300781 33.800781 54.082031 C 33.890625 53.867188 33.9375 53.640625 33.9375 53.402344 C 33.9375 53.167969 33.890625 52.941406 33.800781 52.726562 C 33.710938 52.507812 33.582031 52.316406 33.414062 52.152344 Z M 5.636719 24.371094 " fill-opacity="1" fill-rule="nonzero"/></g><path fill="#ffffff" d="M 6.941406 36.265625 C 6.777344 36.101562 6.585938 35.972656 6.367188 35.882812 C 6.148438 35.792969 5.925781 35.746094 5.6875 35.746094 C 5.453125 35.746094 5.226562 35.792969 5.011719 35.882812 C 4.792969 35.972656 4.601562 36.097656 4.433594 36.265625 C 4.269531 36.433594 4.140625 36.625 4.050781 36.839844 C 3.960938 37.058594 3.914062 37.285156 3.917969 37.519531 C 3.917969 37.753906 3.960938 37.980469 4.050781 38.199219 C 4.140625 38.414062 4.269531 38.605469 4.4375 38.773438 L 19.015625 53.351562 C 19.355469 53.6875 19.769531 53.851562 20.25 53.84375 C 20.742188 53.859375 21.164062 53.691406 21.519531 53.351562 C 21.683594 53.183594 21.808594 52.992188 21.894531 52.773438 C 21.984375 52.558594 22.027344 52.332031 22.027344 52.097656 C 22.027344 51.863281 21.984375 51.636719 21.894531 51.421875 C 21.808594 51.203125 21.683594 51.011719 21.519531 50.84375 Z M 6.941406 36.265625 " fill-opacity="1" fill-rule="nonzero"/></g></g></g><g mask="url(#96eb6aa0fc)"><g transform="matrix(1, 0, 0, 1, 630, 359)"><g clip-path="url(#e4842623d4)"><g clip-path="url(#d7fdd66f4a)"><path fill="#ffffff" d="M 12.730469 1.507812 C 12.390625 1.3125 12.046875 1.3125 11.703125 1.507812 L 1.21875 7.839844 C 1.066406 7.929688 0.945312 8.054688 0.855469 8.207031 C 0.769531 8.363281 0.722656 8.53125 0.722656 8.710938 C 0.722656 8.890625 0.769531 9.054688 0.855469 9.210938 C 0.945312 9.367188 1.066406 9.492188 1.21875 9.582031 L 11.703125 15.898438 C 12.046875 16.097656 12.390625 16.097656 12.730469 15.898438 C 13.070312 15.710938 13.242188 15.421875 13.25 15.035156 L 13.25 2.394531 C 13.25 1.996094 13.078125 1.703125 12.730469 1.507812 Z M 12.730469 1.507812 " fill-opacity="1" fill-rule="nonzero"/></g><g clip-path="url(#6d1c6b67cd)"><path fill="#ffffff" d="M 33.148438 1.507812 C 32.808594 1.3125 32.464844 1.3125 32.121094 1.507812 L 21.636719 7.839844 C 21.484375 7.929688 21.363281 8.054688 21.273438 8.207031 C 21.1875 8.363281 21.140625 8.53125 21.140625 8.710938 C 21.140625 8.890625 21.1875 9.054688 21.273438 9.210938 C 21.363281 9.367188 21.484375 9.492188 21.636719 9.582031 L 32.121094 15.898438 C 32.285156 15.996094 32.460938 16.042969 32.648438 16.042969 C 32.828125 16.042969 32.996094 16 33.148438 15.910156 C 33.492188 15.71875 33.664062 15.429688 33.667969 15.035156 L 33.667969 2.394531 C 33.667969 1.996094 33.496094 1.703125 33.148438 1.507812 Z M 33.148438 1.507812 " fill-opacity="1" fill-rule="nonzero"/></g><g clip-path="url(#1002f20fd3)"><path fill="#ffffff" d="M 53.566406 1.507812 C 53.226562 1.3125 52.882812 1.3125 52.539062 1.507812 L 42.054688 7.839844 C 41.90625 7.933594 41.785156 8.054688 41.699219 8.210938 C 41.613281 8.367188 41.566406 8.53125 41.566406 8.710938 C 41.566406 8.886719 41.613281 9.054688 41.699219 9.210938 C 41.785156 9.363281 41.90625 9.488281 42.054688 9.582031 L 52.535156 15.898438 C 52.699219 15.996094 52.875 16.042969 53.0625 16.042969 C 53.242188 16.042969 53.40625 16 53.5625 15.910156 C 53.910156 15.71875 54.082031 15.421875 54.082031 15.027344 L 54.082031 2.394531 C 54.082031 2 53.910156 1.703125 53.566406 1.507812 Z M 53.566406 1.507812 " fill-opacity="1" fill-rule="nonzero"/></g><g clip-path="url(#fb63cbe755)"><path fill="#ffffff" d="M 73.988281 1.507812 C 73.648438 1.3125 73.304688 1.3125 72.960938 1.507812 L 62.476562 7.839844 C 62.324219 7.929688 62.203125 8.054688 62.113281 8.207031 C 62.027344 8.363281 61.980469 8.53125 61.980469 8.710938 C 61.980469 8.890625 62.027344 9.054688 62.113281 9.210938 C 62.203125 9.367188 62.324219 9.492188 62.476562 9.582031 L 72.960938 15.898438 C 73.304688 16.097656 73.648438 16.097656 73.988281 15.898438 C 74.335938 15.703125 74.507812 15.410156 74.507812 15.011719 L 74.507812 2.394531 C 74.507812 1.996094 74.335938 1.703125 73.988281 1.507812 Z M 73.988281 1.507812 " fill-opacity="1" fill-rule="nonzero"/></g><g clip-path="url(#2ec1d68f65)"><path fill="#ffffff" d="M 94.40625 1.507812 C 94.066406 1.3125 93.722656 1.3125 93.378906 1.507812 L 82.894531 7.839844 C 82.742188 7.929688 82.621094 8.054688 82.53125 8.207031 C 82.445312 8.363281 82.398438 8.53125 82.398438 8.710938 C 82.398438 8.890625 82.445312 9.054688 82.53125 9.210938 C 82.621094 9.367188 82.742188 9.492188 82.894531 9.582031 L 93.378906 15.898438 C 93.722656 16.097656 94.066406 16.097656 94.40625 15.898438 C 94.746094 15.710938 94.917969 15.421875 94.925781 15.035156 L 94.925781 2.394531 C 94.925781 1.996094 94.753906 1.703125 94.40625 1.507812 Z M 94.40625 1.507812 " fill-opacity="1" fill-rule="nonzero"/></g></g></g></g></svg>