<svg xmlns="http://www.w3.org/2000/svg" xmlns:xlink="http://www.w3.org/1999/xlink" width="500" zoomAndPan="magnify" viewBox="0 0 375 374.999991" height="500" preserveAspectRatio="xMidYMid meet" version="1.0"><defs><clipPath id="81cde3509f"><path d="M 5.054688 22 L 339 22 L 339 351 L 5.054688 351 Z M 5.054688 22 " clip-rule="nonzero"/></clipPath></defs><g clip-path="url(#81cde3509f)"><path fill="#ffffff" d="M 5.066406 256.808594 C 5.066406 275.109375 19.933594 290.027344 38.234375 290.027344 L 181.429688 290.027344 L 191.28125 304.5 C 196.011719 311.601562 205.683594 314.042969 213.410156 309.566406 L 237.003906 344.027344 C 241.605469 350.871094 250.675781 352.414062 257.277344 347.917969 C 263.921875 343.351562 265.609375 334.234375 261.105469 327.585938 L 253.785156 316.890625 C 256.53125 313.039062 256.726562 307.691406 253.839844 303.546875 C 251.082031 299.546875 246.070312 297.6875 241.453125 298.816406 L 237.570312 293.183594 L 244.71875 288.285156 L 328.621094 274.371094 C 336.867188 272.96875 341.160156 263.476562 336.335938 256.359375 L 318.597656 230.398438 C 325.488281 221.160156 326.859375 207.136719 319.160156 195.878906 C 311.644531 184.792969 298.242188 180.710938 286.78125 183.769531 L 269.101562 157.816406 C 266.144531 153.527344 260.695312 151.566406 255.136719 153.59375 C 255.136719 132.078125 255.136719 102.691406 255.136719 80.445312 C 255.136719 62.089844 240.214844 47.21875 221.914062 47.21875 L 213.296875 47.21875 L 213.296875 40.859375 C 213.296875 30.609375 204.964844 22.277344 194.152344 22.277344 C 183.90625 22.277344 175.570312 30.609375 175.570312 40.859375 L 175.570312 47.21875 L 84.628906 47.21875 L 84.628906 40.859375 C 84.628906 30.609375 76.242188 22.277344 65.484375 22.277344 C 55.238281 22.277344 46.902344 30.609375 46.902344 40.859375 L 46.902344 47.21875 L 38.234375 47.21875 C 19.933594 47.21875 5.066406 62.089844 5.066406 80.445312 C 5.066406 119.714844 5.066406 209.371094 5.066406 256.808594 Z M 38.234375 278.765625 C 26.125 278.765625 16.328125 268.914062 16.328125 256.808594 L 16.328125 106.460938 L 243.875 106.460938 L 243.875 167.894531 L 223.546875 201.960938 L 189.3125 201.960938 C 183.960938 201.960938 179.570312 206.296875 179.570312 211.644531 L 179.570312 245.992188 C 179.570312 247.121094 179.738281 248.191406 180.132812 249.148438 L 175.742188 252.136719 C 168.136719 257.316406 166.167969 267.785156 171.40625 275.390625 L 173.714844 278.765625 Z M 205.921875 231.523438 L 190.832031 241.828125 L 190.832031 213.222656 L 216.84375 213.222656 Z M 259.191406 164.234375 L 259.753906 164.179688 C 268.925781 177.652344 330.972656 268.824219 327.042969 263.054688 C 326.988281 263.226562 326.875 263.226562 326.761719 263.28125 C 318.417969 264.664062 356.984375 258.273438 245.171875 276.796875 C 239.617188 268.710938 217.179688 235.867188 216.789062 235.296875 C 226.585938 218.835938 258.851562 164.804688 259.191406 164.234375 Z M 186.832031 40.859375 C 186.832031 36.804688 190.097656 33.539062 194.714844 33.539062 C 198.714844 33.539062 202.035156 36.804688 202.035156 40.859375 C 202.035156 49.101562 202.035156 55.800781 202.035156 64.789062 C 202.035156 68.84375 198.714844 72.167969 194.714844 72.167969 L 194.152344 72.167969 C 190.097656 72.167969 186.832031 68.84375 186.832031 64.789062 C 186.832031 62.707031 186.832031 40.050781 186.832031 40.859375 Z M 58.164062 40.859375 C 58.164062 36.804688 61.433594 33.539062 65.992188 33.539062 C 70.046875 33.539062 73.367188 36.804688 73.367188 40.859375 C 73.367188 44.632812 73.367188 66.195312 73.367188 64.789062 C 73.367188 68.84375 70.046875 72.167969 65.992188 72.167969 L 65.484375 72.167969 C 61.433594 72.167969 58.164062 68.84375 58.164062 64.789062 C 58.164062 62.707031 58.164062 40.050781 58.164062 40.859375 Z M 58.164062 40.859375 " fill-opacity="1" fill-rule="nonzero"/></g><path fill="#ffffff" d="M 149.164062 129.492188 L 114.8125 129.492188 C 109.464844 129.492188 105.070312 133.824219 105.070312 139.175781 L 105.070312 173.582031 C 105.070312 178.871094 109.464844 183.265625 114.8125 183.265625 L 149.164062 183.265625 C 154.511719 183.265625 158.847656 178.871094 158.847656 173.582031 L 158.847656 139.175781 C 158.847656 133.824219 154.511719 129.492188 149.164062 129.492188 Z M 147.585938 172.003906 L 116.332031 172.003906 L 116.332031 140.753906 L 147.585938 140.753906 Z M 147.585938 172.003906 " fill-opacity="1" fill-rule="nonzero"/><path fill="#ffffff" d="M 74.664062 129.492188 L 40.316406 129.492188 C 34.964844 129.492188 30.628906 133.824219 30.628906 139.175781 L 30.628906 173.582031 C 30.628906 178.871094 34.964844 183.265625 40.316406 183.265625 L 74.664062 183.265625 C 80.015625 183.265625 84.351562 178.871094 84.351562 173.582031 L 84.351562 139.175781 C 84.351562 133.824219 80.015625 129.492188 74.664062 129.492188 Z M 74.664062 129.492188 " fill-opacity="1" fill-rule="nonzero"/><path fill="#ffffff" d="M 189.3125 183.265625 L 223.660156 183.265625 C 229.007812 183.265625 233.34375 178.871094 233.34375 173.582031 L 233.34375 139.175781 C 233.34375 133.824219 229.007812 129.492188 223.660156 129.492188 L 189.3125 129.492188 C 183.960938 129.492188 179.570312 133.824219 179.570312 139.175781 L 179.570312 173.582031 C 179.570312 178.871094 183.960938 183.265625 189.3125 183.265625 Z M 189.3125 183.265625 " fill-opacity="1" fill-rule="nonzero"/><path fill="#ffffff" d="M 74.664062 201.960938 L 40.316406 201.960938 C 34.964844 201.960938 30.628906 206.296875 30.628906 211.644531 L 30.628906 245.992188 C 30.628906 251.34375 34.964844 255.683594 40.316406 255.683594 L 74.664062 255.683594 C 80.015625 255.683594 84.351562 251.34375 84.351562 245.992188 L 84.351562 211.644531 C 84.351562 206.296875 80.015625 201.960938 74.664062 201.960938 Z M 73.089844 244.417969 L 41.890625 244.417969 L 41.890625 213.222656 L 73.089844 213.222656 Z M 73.089844 244.417969 " fill-opacity="1" fill-rule="nonzero"/><path fill="#ffffff" d="M 149.164062 201.960938 L 114.8125 201.960938 C 109.464844 201.960938 105.070312 206.296875 105.070312 211.644531 L 105.070312 245.992188 C 105.070312 251.34375 109.464844 255.683594 114.8125 255.683594 L 149.164062 255.683594 C 154.511719 255.683594 158.847656 251.34375 158.847656 245.992188 L 158.847656 211.644531 C 158.847656 206.296875 154.511719 201.960938 149.164062 201.960938 Z M 149.164062 201.960938 " fill-opacity="1" fill-rule="nonzero"/><path fill="#ffffff" d="M 358.921875 217.351562 C 361.578125 217.351562 363.9375 215.464844 364.449219 212.761719 C 370.15625 182.480469 350.207031 153.257812 319.921875 147.550781 C 316.855469 146.972656 313.921875 148.992188 313.34375 152.042969 C 312.769531 155.101562 314.78125 158.042969 317.835938 158.617188 C 341.957031 163.164062 357.945312 186.464844 353.378906 210.675781 C 352.730469 214.128906 355.378906 217.351562 358.921875 217.351562 Z M 358.921875 217.351562 " fill-opacity="1" fill-rule="nonzero"/><path fill="#ffffff" d="M 336.683594 213.15625 C 339.339844 213.15625 341.703125 211.273438 342.214844 208.570312 C 345.605469 190.578125 333.726562 173.179688 315.730469 169.789062 C 312.683594 169.222656 309.730469 171.222656 309.15625 174.277344 C 308.578125 177.332031 310.589844 180.28125 313.648438 180.855469 C 325.535156 183.09375 333.386719 194.59375 331.144531 206.480469 C 330.496094 209.945312 333.144531 213.15625 336.683594 213.15625 Z M 336.683594 213.15625 " fill-opacity="1" fill-rule="nonzero"/></svg>