<svg xmlns="http://www.w3.org/2000/svg" xmlns:xlink="http://www.w3.org/1999/xlink" width="500" zoomAndPan="magnify" viewBox="0 0 375 374.999991" height="500" preserveAspectRatio="xMidYMid meet" version="1.0"><defs><clipPath id="89b2a63e88"><path d="M 10.363281 49.765625 L 364.363281 49.765625 L 364.363281 268 L 10.363281 268 Z M 10.363281 49.765625 " clip-rule="nonzero"/></clipPath></defs><g clip-path="url(#89b2a63e88)"><path fill="#ffffff" d="M 12.371094 51.820312 L 10.363281 53.824219 L 10.363281 264.382812 L 12.09375 266.039062 L 13.753906 267.773438 L 361.242188 267.773438 L 362.902344 266.039062 L 364.632812 264.382812 L 364.632812 53.824219 L 362.625 51.820312 L 360.621094 49.8125 L 14.375 49.8125 Z M 341.800781 151.527344 L 341.800781 233.867188 L 33.195312 233.867188 L 33.195312 69.191406 L 341.800781 69.191406 Z M 192.894531 241.480469 C 196.078125 243.488281 197.875 246.738281 197.875 250.753906 C 197.875 255.113281 195.9375 258.226562 192.0625 260.09375 C 188.464844 261.890625 186.597656 261.890625 182.933594 260.230469 C 175.460938 256.839844 175.042969 245.839844 182.101562 241.480469 C 185.074219 239.679688 189.917969 239.679688 192.894531 241.480469 Z M 192.894531 241.480469 " fill-opacity="1" fill-rule="nonzero"/></g><path fill="#ffffff" d="M 172.898438 82.332031 C 144.734375 88.214844 123.214844 110.980469 118.234375 140.039062 C 117.058594 146.890625 117.75 160.867188 119.617188 168.132812 C 121.761719 176.433594 127.644531 188.058594 133.183594 194.90625 C 139.34375 202.589844 147.367188 208.886719 156.707031 213.453125 C 168.265625 219.128906 173.660156 220.304688 187.5 220.304688 C 200.855469 220.304688 206.460938 219.128906 217.183594 214.074219 C 232.339844 206.945312 243.617188 195.667969 250.742188 180.515625 C 255.792969 169.792969 256.972656 164.1875 257.039062 150.835938 C 257.039062 136.996094 255.863281 131.667969 250.121094 120.042969 C 240.433594 100.253906 222.996094 86.621094 201.6875 82.261719 C 193.515625 80.605469 180.996094 80.605469 172.898438 82.332031 Z M 165.425781 96.65625 C 164.25 98.109375 162.378906 100.394531 161.273438 101.707031 L 159.199219 104.128906 L 156.707031 102.8125 C 155.394531 102.050781 154.355469 101.152344 154.492188 100.738281 C 154.769531 99.976562 165.773438 94.09375 166.945312 94.09375 C 167.292969 94.097656 166.597656 95.273438 165.425781 96.65625 Z M 182.652344 102.402344 L 182.652344 110.703125 L 180.511719 110.703125 C 176.980469 110.703125 168.816406 108.558594 168.816406 107.660156 C 168.816406 106.828125 181.410156 94.097656 182.238281 94.097656 C 182.449219 94.097656 182.652344 97.835938 182.652344 102.402344 Z M 200.988281 101.429688 C 204.242188 104.683594 206.734375 107.589844 206.523438 107.933594 C 206.039062 108.699219 197.25 110.703125 194.480469 110.703125 L 192.34375 110.703125 L 192.34375 102.402344 C 192.34375 92.4375 191.996094 92.4375 200.988281 101.429688 Z M 214.484375 97.070312 C 217.664062 98.664062 220.367188 100.324219 220.503906 100.742188 C 220.640625 101.15625 219.601562 102.058594 218.285156 102.816406 L 215.796875 104.132812 L 213.722656 101.710938 C 208.875 95.964844 207.492188 94.101562 208.046875 94.101562 C 208.390625 94.097656 211.300781 95.414062 214.484375 97.070312 Z M 150.132812 109.734375 L 154.144531 112.226562 L 151.792969 117.207031 C 148.75 123.851562 146.1875 132.847656 145.148438 140.523438 L 144.316406 146.679688 L 127.296875 146.679688 L 127.78125 143.359375 C 129.167969 132.359375 133.730469 121.839844 140.859375 112.914062 C 143.351562 109.800781 145.566406 107.238281 145.773438 107.238281 C 145.984375 107.246094 147.921875 108.351562 150.132812 109.734375 Z M 234.136719 112.921875 C 241.191406 121.707031 245.6875 132.222656 247.28125 143.710938 L 247.699219 146.6875 L 230.679688 146.6875 L 229.847656 140.53125 C 228.808594 132.847656 226.25 123.855469 223.203125 117.214844 L 220.851562 112.234375 L 224.792969 109.742188 C 226.9375 108.425781 228.875 107.320312 229.152344 107.25 C 229.429688 107.246094 231.644531 109.804688 234.136719 112.921875 Z M 169.851562 118.3125 C 172.550781 119.003906 176.496094 119.765625 178.710938 120.046875 L 182.652344 120.53125 L 182.652344 146.683594 L 153.453125 146.683594 L 153.867188 144.746094 C 154.003906 143.707031 154.421875 141.285156 154.628906 139.417969 C 155.253906 135.058594 157.882812 126.546875 160.582031 120.667969 C 162.238281 116.929688 162.792969 116.171875 163.835938 116.585938 C 164.457031 116.859375 167.226562 117.625 169.851562 118.3125 Z M 215.035156 122.050781 C 217.527344 127.863281 220.296875 137.964844 220.851562 143.363281 L 221.265625 146.683594 L 192.34375 146.683594 L 192.34375 120.597656 L 198.089844 119.765625 C 201.203125 119.28125 205.492188 118.3125 207.566406 117.625 C 209.644531 116.933594 211.648438 116.449219 212.066406 116.515625 C 212.410156 116.65625 213.789062 119.144531 215.035156 122.050781 Z M 145.289062 162.042969 C 146.394531 169.652344 148.953125 178.375 152.207031 185.292969 L 154.90625 191.035156 L 151.652344 193.042969 C 149.851562 194.148438 148.054688 195.117188 147.640625 195.117188 C 146.808594 195.117188 140.097656 188.265625 137.882812 185.015625 C 133.589844 179 129.230469 167.925781 128.125 160.316406 L 127.507812 156.371094 L 144.457031 156.371094 Z M 182.652344 169.792969 L 182.652344 183.148438 L 178.710938 183.632812 C 176.496094 183.910156 172.273438 184.738281 169.300781 185.570312 C 162.933594 187.230469 163.210938 187.441406 159.753906 179.203125 C 156.847656 172.421875 155.117188 166.058594 154.5625 160.726562 L 154.078125 156.371094 L 182.652344 156.371094 Z M 220.503906 160.316406 C 220.222656 162.527344 219.394531 166.820312 218.632812 169.863281 C 216.972656 176.09375 212.199219 186.8125 211.09375 186.8125 C 210.675781 186.8125 208.117188 186.191406 205.421875 185.429688 C 202.71875 184.738281 198.707031 183.90625 196.425781 183.628906 L 192.34375 183.148438 L 192.34375 156.371094 L 220.917969 156.371094 Z M 246.867188 160.316406 C 245.136719 171.730469 239.324219 183.425781 231.226562 191.800781 L 227.421875 195.675781 L 223.894531 193.390625 C 221.957031 192.144531 220.367188 190.898438 220.433594 190.550781 C 220.433594 190.203125 221.609375 187.578125 222.992188 184.671875 C 226.039062 178.304688 228.597656 169.65625 229.707031 162.042969 L 230.539062 156.367188 L 247.488281 156.367188 Z M 182.652344 200.03125 L 182.652344 207.640625 L 180.785156 206.253906 C 179.679688 205.492188 176.703125 202.726562 174.070312 200.097656 L 169.363281 195.253906 L 171.648438 194.492188 C 173.585938 193.871094 176.5625 193.316406 182.164062 192.417969 C 182.449219 192.421875 182.652344 195.8125 182.652344 200.03125 Z M 198.222656 193.390625 C 199.746094 193.597656 202.03125 194.152344 203.347656 194.566406 L 205.628906 195.253906 L 200.925781 200.097656 C 198.296875 202.726562 195.324219 205.496094 194.28125 206.253906 L 192.34375 207.640625 L 192.34375 199.957031 C 192.34375 192.417969 192.34375 192.347656 193.9375 192.625 C 194.765625 192.835938 196.703125 193.183594 198.222656 193.390625 Z M 166.117188 205.707031 L 167.503906 207.574219 L 165.84375 206.953125 C 163.351562 205.984375 155.671875 202.039062 155.671875 201.761719 C 155.671875 201.625 156.707031 200.863281 157.957031 200.03125 L 160.171875 198.644531 L 162.457031 201.207031 C 163.695312 202.59375 165.289062 204.601562 166.117188 205.707031 Z M 218.289062 200.863281 C 219.539062 201.832031 219.394531 201.96875 215.246094 204.046875 C 212.894531 205.289062 210.128906 206.539062 209.226562 206.953125 C 207.636719 207.507812 207.566406 207.4375 208.394531 206.332031 C 208.878906 205.640625 210.539062 203.632812 211.992188 201.835938 C 214.832031 198.511719 215.035156 198.511719 218.289062 200.863281 Z M 218.289062 200.863281 " fill-opacity="1" fill-rule="nonzero"/><path fill="#ffffff" d="M 84.746094 280.503906 C 78.171875 287.074219 78.101562 292.75 84.675781 299.324219 C 89.171875 303.753906 100.730469 309.632812 111.179688 312.675781 C 153.871094 325.199219 221.125 325.199219 263.816406 312.675781 C 267.691406 311.503906 274.402344 308.871094 278.761719 306.796875 C 294.742188 298.976562 299.101562 290.535156 291.5625 281.746094 C 286.925781 276.351562 296.265625 276.765625 186.804688 276.765625 L 88.484375 276.765625 Z M 84.746094 280.503906 " fill-opacity="1" fill-rule="nonzero"/></svg>